<svg width="50px" height="50px" viewBox="0 0 17 25" version="1.1" xmlns="http://www.w3.org/2000/svg">
    <g id="Page-1" stroke="none" strokeWidth="1" fill="none" fill-rule="evenodd">
        <path d="M4.00017038,0 C2.34331613,0 1.00017038,1.34314575 1.00017038,3 C1.00017038,4.65685425 2.34331613,6 4.00017038,6 C5.65702463,6 7.00017038,4.65685425 7.00017038,3 C7.00017038,1.34314575 5.65702463,0 4.00017038,0 Z M13.0001704,0 C11.3433161,0 10.0001704,1.34314575 10.0001704,3 C10.0001704,4.65685425 11.3433161,6 13.0001704,6 C14.6570246,6 16.0001704,4.65685425 16.0001704,3 C16.0001704,1.34314575 14.6570246,0 13.0001704,0 Z M3.00017038,7.99989957 C1.35520058,7.99989957 8.41391313e-05,9.35503 8.41391313e-05,11 L8.41391313e-05,17 C-0.00681425273,17.5368294 0.411308479,17.9834018 0.94743598,18.011719 L0.94743598,24.101562 C0.94743598,24.537562 1.41063918,25 1.98063918,25 C2.52463918,25 2.97588918,24.578156 3.01188918,24.035156 L3.44938918,17.464844 C3.46738908,17.203844 3.68443598,17 3.94743598,17 C4.21043638,17 4.42748238,17.204797 4.44548238,17.466797 L4.88298238,24.035156 C4.91898338,24.577156 5.37023338,25 5.91423238,25 C6.48423338,25 6.94743638,24.536797 6.94743638,23.966797 L6.94743638,10 L13.0001704,10 C13.3608063,10.0051003 13.6962517,9.8156247 13.8780581,9.50412715 C14.0598645,9.1926296 14.0598645,8.8073704 13.8780581,8.49587285 C13.6962517,8.1843753 13.3608063,7.99489971 13.0001704,7.99989957 L3.00017038,7.99989957 Z M15.9767324,8.759766 C15.9827334,8.840766 16.0001704,8.918 16.0001704,9 C16.0001704,10.657 14.6571704,12 13.0001704,12 L9.00017038,12 L9.00017038,17 C9.00017038,17.553 9.44817038,18 10.0001704,18 L10.0001704,23.966797 C10.0001704,24.536797 10.4633734,25 11.0333734,25 C11.5773734,25 12.0286234,24.578156 12.0646234,24.035156 L12.5021234,17.464844 C12.5201234,17.203844 12.7371704,17 13.0001704,17 C13.2631704,17 13.4802174,17.204797 13.4982174,17.466797 L13.9357174,24.035156 C13.9717174,24.577156 14.4229674,25 14.9669674,25 C15.5369674,25 16.0001704,24.536797 16.0001704,23.966797 L16.0001704,18 C16.5521704,18 17.0001704,17.553 17.0001704,17 L17.0001704,11 C17.0001704,10.106 16.5997334,9.309766 15.9767324,8.759766 Z" id="Shape" fill="#FFFFFF" fill-rule="nonzero"></path>
    </g>
</svg>
