<svg width="50px" height="50px" viewBox="0 0 25 25" version="1.1" xmlns="http://www.w3.org/2000/svg" >
    <g id="Page-1-Copy" stroke="none" strokeWidth="1" fill="none" fill-rule="evenodd">
        <g id="Group-Copy-2" transform="translate(-30.000000, -17.000000)" fill="#F4EAFF" fillRule="nonzero">
            <path d="M32.9999778,17 C31.345693,17 30,18.345703 30,20 C30,21.654297 31.345693,23 32.9999778,23 C34.6542625,23 35.9999555,21.654297 35.9999555,20 C35.9999555,18.345703 34.6542625,17 32.9999778,17 Z M45.6717589,17.984375 C42.8006866,18.0351565 40.0096913,19.4902345 37.9843158,21.515625 C36.6444823,22.8535155 35.7148017,24.3320315 35.3280855,27.28125 L45.7498833,37.671875 C48.1307252,37.359375 50.0096172,36.4746095 51.4842158,35 C53.4275609,33.0566405 54.6560673,30.6660155 54.9373152,28.25 C55.2615318,25.4726565 54.3240388,22.886719 52.2185854,20.78125 C50.1893034,18.751953 47.9041643,17.9453125 45.6717589,17.984375 Z M35.2343362,28.578125 C35.2714454,29.685547 35.4745689,30.7441405 35.8437067,31.703125 C36.0155804,32.574219 36.0214399,33.6484375 35.7030827,33.96875 C34.8691044,34.8027345 33.8222372,35.625 32.9843529,36.28125 C32.3769354,36.7558595 31.8574082,37.158203 31.5468635,37.46875 C31.0878824,37.9277345 30.9042903,38.5351565 31.0468672,39.1875 C31.1699133,39.75 31.5370981,40.3496095 32.0937345,40.90625 C32.8183386,41.6289065 33.570286,42 34.2499685,42 C34.7226215,42 35.1503523,41.8183595 35.5155841,41.453125 C35.8378472,41.1308595 36.2538602,40.5976565 36.7343251,39.984375 C37.3827578,39.154297 38.2030642,38.125 39.0311831,37.296875 C39.312431,37.015625 40.2050024,36.955078 41.2342918,37.140625 C42.2167065,37.5253905 43.2928705,37.730469 44.4217681,37.765625 L35.2343362,28.578125 Z" id="Shape"></path>
        </g>
    </g>
</svg>
