<?xml version="1.0" encoding="UTF-8"?>
<svg width="359px" height="393px" viewBox="0 0 359 393" version="1.1" xmlns="http://www.w3.org/2000/svg" xmlns:xlink="http://www.w3.org/1999/xlink">
    <title>Group 2 Copy 3</title>
    <g id="Page-3" stroke="none" stroke-width="1" fill="none" fill-rule="evenodd">
        <g id="Group-2-Copy-3" fill="#FFFFFF" fill-rule="nonzero">
            <g id="icons8-illuminati" transform="translate(81.000000, 0.000000)">
                <path d="M95.530836,0 C87.4161157,0 80.7334049,4.30914298 76.4373765,11.0064398 L67.8415917,26.7873187 C76.4336485,24.8738052 85.9841062,23.9189189 95.530836,23.9189189 C105.077566,23.9189189 114.150687,24.8738052 123.22008,26.7873187 L114.624296,11.0064398 C110.328267,4.30914298 103.645556,0 95.530836,0 Z M95.530836,38.2702703 C82.1654143,38.2702703 69.7509377,40.1800476 58.2948619,44.0070747 L42.5483522,72.7097774 C56.8684469,63.1422098 75.4827035,57.4054054 95.530836,57.4054054 C115.578969,57.4054054 134.193225,63.1422098 148.51332,72.7097774 L132.76681,44.0070747 C121.310734,40.1800476 108.896258,38.2702703 95.530836,38.2702703 Z M95.530836,71.7567568 C58.7759264,71.7567568 28.7037277,93.2837838 28.7037277,119.594595 C28.7037277,145.905405 58.7759264,167.432432 95.530836,167.432432 C132.285746,167.432432 162.357944,145.905405 162.357944,119.594595 C162.357944,93.2837838 132.285746,71.7567568 95.530836,71.7567568 Z M95.530836,90.8918919 C126.557708,90.8918919 141.834342,116.245946 142.789015,117.202703 C143.266351,118.637838 143.266351,120.551351 142.789015,121.986486 C141.834342,122.943243 126.557708,148.297297 95.530836,148.297297 C64.5039643,148.297297 49.2273303,122.943243 48.2726573,121.986486 C47.3179843,120.551351 47.3179843,118.637838 48.2726573,117.202703 C48.7499938,116.245946 64.5039643,90.8918919 95.530836,90.8918919 Z M95.530836,97.3252563 C107.863669,97.3252563 117.861405,107.344815 117.861405,119.704567 C117.861405,132.064318 107.863669,142.083877 95.530836,142.083877 C83.1980033,142.083877 73.200267,132.064318 73.200267,119.704567 C73.200267,107.344815 83.1980033,97.3252563 95.530836,97.3252563 Z M95.3026116,108.530521 C89.1305357,108.530521 84.1270797,113.540301 84.1270797,119.720177 C84.1270797,125.900053 89.1305357,130.909832 95.3026116,130.909832 C101.474687,130.909832 106.478143,125.900053 106.478143,119.720177 C106.478143,113.540301 101.474687,108.530521 95.3026116,108.530521 Z M14.383633,122.939507 L2.45022084,144.952385 C-0.891134575,151.649682 -0.892999051,159.782115 2.92569285,166.479412 C6.74438476,173.176709 13.9062966,177 21.5436804,177 L64.5039643,177 C36.3411115,167.910811 16.292979,147.336804 14.383633,122.939507 Z M176.202569,123.425358 C174.293223,147.344277 154.243224,167.910811 126.557708,177 L169.517992,177 C177.155375,177 184.317289,173.176709 188.135981,166.479412 C191.954673,159.782115 191.954673,151.649682 188.135981,144.952385 L176.202569,123.425358 Z" id="Shape"></path>
            </g>
            <g id="Pongzi" transform="translate(0.000000, 284.000000)">
                <path d="M11.8531929,66.4417895 L35.8934716,66.4417895 C42.1632356,66.4417895 47.5889929,65.2688527 52.1707436,62.9229792 C56.7524942,60.5771056 60.2954674,57.2430097 62.799663,52.9206914 C65.3038587,48.5983732 66.5559566,43.4817827 66.5559566,37.5709202 L66.5559566,37.4600915 C66.5559566,31.5492289 65.3038587,26.4141671 62.799663,22.0549059 C60.2954674,17.6956448 56.7524942,14.3153703 52.1707436,11.9140824 C47.5889929,9.51279444 42.1632356,8.31215048 35.8934716,8.31215048 L11.8531929,8.31215048 L11.8531929,25.9893238 L30.2729435,25.9893238 C34.168359,25.9893238 37.2197678,26.9406033 39.4271699,28.8431622 C41.6345721,30.7457211 42.7382731,33.6180308 42.7382731,37.4600915 L42.7382731,37.5709202 C42.7382731,41.376038 41.6345721,44.2483477 39.4271699,46.1878495 C37.2197678,48.1273513 34.168359,49.0971022 30.2729435,49.0971022 L11.8531929,49.0971022 L11.8531929,66.4417895 Z M0,88.2750381 L23.5950883,88.2750381 L23.5950883,8.31215048 L0,8.31215048 L0,88.2750381 Z" id="Shape"></path>
                <path d="M100.815281,89.6049822 C107.530235,89.6049822 113.29916,88.3673954 118.122055,85.8922217 C122.944951,83.417048 126.65487,79.8058804 129.251814,75.0587189 C131.848758,70.3115574 133.14723,64.5392306 133.14723,57.7417387 L133.14723,57.63091 C133.14723,50.9073038 131.820933,45.17192 129.168341,40.4247585 C126.515748,35.677597 122.778004,32.047958 117.955109,29.5358414 C113.132214,27.0237248 107.418938,25.7676665 100.815281,25.7676665 C94.2487231,25.7676665 88.5539967,27.0329605 83.7311012,29.5635486 C78.9082058,32.0941366 75.1704619,35.7422471 72.5178694,40.50788 C69.865277,45.273513 68.5389807,50.9811896 68.5389807,57.63091 L68.5389807,57.7417387 C68.5389807,64.5022877 69.8281778,70.256143 72.4065718,75.0033045 C74.9849659,79.750466 78.6856107,83.3708693 83.5085061,85.8645145 C88.3314015,88.3581596 94.1003264,89.6049822 100.815281,89.6049822 Z M100.87093,72.7590239 C98.9417714,72.7590239 97.2908572,72.1771734 95.9181869,71.0134723 C94.5455167,69.8497712 93.4974644,68.1503982 92.7740301,65.9153533 C92.0505958,63.6803084 91.6888787,60.9557702 91.6888787,57.7417387 L91.6888787,57.63091 C91.6888787,54.4538214 92.0598706,51.7477546 92.8018545,49.5127097 C93.5438384,47.2776648 94.6011655,45.5690561 95.9738357,44.3868836 C97.346506,43.2047111 98.960321,42.6136248 100.815281,42.6136248 C102.670241,42.6136248 104.284056,43.2047111 105.656726,44.3868836 C107.029396,45.5690561 108.095998,47.2776648 108.856531,49.5127097 C109.617065,51.7477546 109.997332,54.4538214 109.997332,57.63091 L109.997332,57.7417387 C109.997332,60.9557702 109.635614,63.6803084 108.91218,65.9153533 C108.188746,68.1503982 107.140694,69.8497712 105.768023,71.0134723 C104.395353,72.1771734 102.762988,72.7590239 100.87093,72.7590239 Z" id="Shape"></path>
                <path d="M137.745747,88.2750381 L160.561752,88.2750381 L160.561752,53.9181495 C160.561752,51.9971191 160.914195,50.2977461 161.619079,48.8200305 C162.323964,47.3423149 163.325642,46.1786138 164.624114,45.3289273 C165.922586,44.4792408 167.462202,44.0543976 169.242964,44.0543976 C172.099602,44.0543976 174.251355,44.9410269 175.698224,46.7142857 C177.145092,48.4875445 177.868527,50.9073038 177.868527,53.9735638 L177.868527,88.2750381 L200.684532,88.2750381 L200.684532,48.9862735 C200.684532,41.6346382 198.857397,35.9269615 195.203126,31.8632435 C191.548855,27.7995255 186.345693,25.7676665 179.593639,25.7676665 C174.95624,25.7676665 171.079374,26.8482461 167.963042,29.0094052 C164.846709,31.1705643 162.52801,34.3199458 161.006942,38.4575496 L160.561752,38.4575496 L160.561752,27.0976106 L137.745747,27.0976106 L137.745747,88.2750381 Z" id="Path"></path>
                <path d="M237.781945,109 C244.496899,109 250.302923,108.039485 255.200017,106.118454 C260.097111,104.197424 263.871954,101.546772 266.524546,98.1664972 C269.177139,94.7862227 270.503435,90.9164548 270.503435,86.5571937 L270.503435,27.0976106 L247.68743,27.0976106 L247.68743,37.6817489 L247.186591,37.6817489 C246.222012,35.1696323 244.877166,33.0269446 243.152053,31.2536858 C241.426941,29.480427 239.37721,28.1227758 237.002861,27.1807321 C234.628513,26.2386884 231.99447,25.7676665 229.100733,25.7676665 C223.943945,25.7676665 219.575514,26.9590747 215.995442,29.3418912 C212.41537,31.7247077 209.688579,35.2065752 207.815069,39.7874936 C205.94156,44.3684121 205.004805,50.002203 205.004805,56.6888663 L205.004805,56.7442806 C205.004805,63.0245721 205.923011,68.3443484 207.759421,72.7036096 C209.595831,77.0628707 212.294797,80.3784952 215.85632,82.650483 C219.417843,84.9224708 223.739899,86.0584647 228.822489,86.0584647 C231.790425,86.0584647 234.489391,85.6613286 236.919388,84.8670564 C239.349386,84.0727843 241.44549,82.9460261 243.207702,81.4867819 C244.969914,80.0275377 246.31476,78.2819861 247.242239,76.2501271 L247.68743,76.2501271 L247.68743,87.1113371 C247.68743,89.2540247 246.889797,91.0180478 245.294532,92.4034062 C243.699266,93.7887646 241.250719,94.4814438 237.948891,94.4814438 C235.092253,94.4814438 232.875576,93.9827148 231.29886,92.9852567 C229.722144,91.9877987 228.748291,91.0642264 228.377299,90.2145399 L228.266001,89.9374682 L206.340376,89.9374682 L206.396025,90.4361973 C206.804116,93.9457719 208.315909,97.1043891 210.931402,99.9120488 C213.546895,102.719709 217.136242,104.936282 221.699443,106.561769 C226.262644,108.187256 231.623478,109 237.781945,109 Z M237.948891,70.8749365 C235.982634,70.8749365 234.257521,70.3392645 232.773553,69.2679207 C231.289585,68.1965769 230.148785,66.6542112 229.351152,64.6408236 C228.55352,62.627436 228.154703,60.2353838 228.154703,57.464667 L228.154703,57.4092527 C228.154703,54.5646501 228.562795,52.1541264 229.378977,50.1776817 C230.195159,48.2012371 231.335959,46.6865785 232.801378,45.6337062 C234.266796,44.5808338 235.982634,44.0543976 237.948891,44.0543976 C239.952248,44.0543976 241.686635,44.5808338 243.152053,45.6337062 C244.617471,46.6865785 245.758272,48.2104728 246.574454,50.2053889 C247.390636,52.200305 247.798727,54.6200644 247.798727,57.464667 L247.798727,57.5200813 C247.798727,60.3277411 247.399911,62.729029 246.602278,64.7239451 C245.804646,66.7188612 244.663845,68.2427555 243.179878,69.2956279 C241.69591,70.3485003 239.952248,70.8749365 237.948891,70.8749365 Z" id="Shape"></path>
                <polygon id="Path" points="275.714089 88.2750381 331.084638 88.2750381 331.084638 71.8723945 305.263598 71.8723945 305.263598 71.4290798 329.860365 40.5632944 329.860365 27.0976106 276.60447 27.0976106 276.60447 43.5002542 303.705432 43.5002542 303.705432 43.9435689 275.714089 76.7488561"></polygon>
                <path d="M336.183995,88.2750381 L359,88.2750381 L359,27.0976106 L336.183995,27.0976106 L336.183995,88.2750381 Z M347.591997,21.6115913 C350.782528,21.6115913 353.462945,20.5402474 355.633248,18.3975597 C357.803551,16.2548721 358.888702,13.724284 358.888702,10.8057956 C358.888702,7.85036435 357.803551,5.31054059 355.633248,3.18632435 C353.462945,1.06210812 350.782528,0 347.591997,0 C344.401467,0 341.72105,1.06210812 339.550747,3.18632435 C337.380444,5.31054059 336.295292,7.85036435 336.295292,10.8057956 C336.295292,13.724284 337.380444,16.2548721 339.550747,18.3975597 C341.72105,20.5402474 344.401467,21.6115913 347.591997,21.6115913 Z" id="Shape"></path>
            </g>
            <g id="La-pyramide-de" transform="translate(3.000000, 223.000000)">
                <polygon id="Path" points="24.5723244 39.6085952 2.7647469 39.6085952 11.1675592 0 8.85151492 0 0 41.7105633 24.1317309 41.7105633"></polygon>
                <path d="M36.8728988,40.2002536 C34.6471056,40.2002536 32.8374286,39.6402858 31.4438676,38.5203502 C30.0503066,37.4004146 29.3535261,35.9359471 29.3535261,34.1269477 C29.3535261,31.9524149 30.236365,30.2277231 32.0020428,28.9528723 C33.7677206,27.6780216 36.2732772,26.9550842 39.5187125,26.7840603 L49.450988,26.2253722 L48.3481527,31.2431775 C47.9769369,32.9612452 47.2308262,34.4974493 46.1098205,35.8517901 C44.9888148,37.2061308 43.6298676,38.2694599 42.0329788,39.0417774 C40.4360901,39.8140949 38.7160634,40.2002536 36.8728988,40.2002536 Z M36.4395134,42.1685341 C37.9463012,42.1685341 39.3858887,41.9270531 40.758276,41.4440912 C42.1306633,40.9611294 43.3785611,40.2768079 44.5019695,39.3911269 C45.6253778,38.5054458 46.544182,37.4721513 47.258382,36.2912432 L47.3656021,36.3124707 L46.2136618,41.7105633 L48.3923022,41.7105633 L52.5982134,21.9243316 C52.6835089,21.4663609 52.7488321,21.0205847 52.7941829,20.587003 C52.8395337,20.1534212 52.8622091,19.7374537 52.8622091,19.3391005 C52.8622091,17.6987163 52.4547277,16.265563 51.6397648,15.0396408 C50.8248019,13.8137185 49.6763154,12.8623227 48.1943054,12.1854535 C46.7122953,11.5085842 44.9737229,11.1701496 42.9785881,11.1701496 C40.8326844,11.1701496 38.8991936,11.5423072 37.1781157,12.2866225 C35.4570379,13.0309379 34.0411769,14.0725126 32.9305328,15.4113468 C31.8198888,16.7501809 31.0831635,18.3253021 30.7203571,20.1367103 L33.0409065,20.1367103 C33.3490516,18.7152246 33.9416154,17.4871194 34.8185977,16.4523946 C35.6955801,15.4176698 36.8158349,14.6168233 38.1793623,14.049855 C39.5428896,13.4828866 41.0911238,13.1994024 42.824065,13.1994024 C45.2775132,13.1994024 47.1900555,13.766145 48.5616919,14.89963 C49.9333283,16.033115 50.6191465,17.5942351 50.6191465,19.5829903 C50.6191465,19.9166073 50.5969967,20.2697958 50.5526971,20.6425556 C50.5083975,21.0153155 50.4435999,21.4102061 50.3583044,21.8272274 L49.8303129,24.3302587 L39.5142075,24.9174006 C35.5644832,25.1381057 32.50841,26.0569829 30.3459878,27.674032 C28.1835656,29.2910811 27.1023545,31.504531 27.1023545,34.3143815 C27.1023545,35.8551022 27.5045049,37.2170456 28.3088059,38.4002119 C29.1131068,39.5833782 30.2173687,40.5072235 31.6215917,41.1717477 C33.0258146,41.8362719 34.6317885,42.1685341 36.4395134,42.1685341 Z" id="Shape"></path>
                <path d="M81.1915512,40.1519273 C78.3260415,40.1519273 76.0221608,39.1953376 74.2799092,37.2821582 C72.5376577,35.3689788 71.6665319,32.8670013 71.6665319,29.776226 C71.6665319,27.5429789 72.0036595,25.4326553 72.6779148,23.4452551 C73.35217,21.4578549 74.287718,19.6937192 75.4845586,18.152848 C76.6813992,16.6119768 78.0759363,15.4011847 79.6681698,14.5204718 C81.2604034,13.6397589 82.9702937,13.1994024 84.7978408,13.1994024 C87.6663539,13.1994024 89.9278871,14.1684877 91.5824405,16.1066583 C93.2369938,18.0448289 94.0642705,20.6981083 94.0642705,24.0664964 C94.0642705,26.3265412 93.7369789,28.4337786 93.0823956,30.3882085 C92.4278124,32.3426384 91.5125372,34.0476836 90.3365699,35.5033439 C89.1606027,36.9590043 87.7927956,38.0976833 86.2331485,38.9193809 C84.6735015,39.7410785 82.9929691,40.1519273 81.1915512,40.1519273 Z M66.5735771,51.5614501 L70.4740462,33.0967395 L70.5767612,33.0967395 C70.7951058,34.8626817 71.386318,36.4277914 72.3503979,37.7920684 C73.3144778,39.1563454 74.5586965,40.2268256 76.083054,41.003509 C77.6074115,41.7801924 79.3001826,42.1685341 81.1613674,42.1685341 C83.3036671,42.1685341 85.2920444,41.7101117 87.1264992,40.793267 C88.9609541,39.8764223 90.5626482,38.5920116 91.9315816,36.9400351 C93.300515,35.2880586 94.3667092,33.3567379 95.1301644,31.1460733 C95.8936196,28.9354086 96.2753472,26.5431816 96.2753472,23.9693922 C96.2753472,21.3850644 95.8215389,19.1370635 94.9139222,17.2253895 C94.0063055,15.3137156 92.7294253,13.8300531 91.0832814,12.774402 C89.4371374,11.7187509 87.4911076,11.1909254 85.2451919,11.1909254 C82.8887523,11.1909254 80.6794776,11.8389645 78.6173678,13.1350426 C76.555258,14.4311208 74.9203767,16.1926219 73.7127239,18.4195459 L73.5636069,18.4195459 L74.9962116,11.6488961 L72.8058581,11.6488961 L64.3417772,51.5614501 L66.5735771,51.5614501 Z" id="Shape"></path>
                <path d="M96.4403758,52 C97.5888622,52 98.6386882,51.8088025 99.5898536,51.4264075 C100.541019,51.0440125 101.467557,50.3751223 102.369467,49.419737 C103.271377,48.4643517 104.215935,47.1318406 105.203141,45.4222037 L124.81586,11.6488961 L122.311055,11.6488961 L106.434821,39.3656088 L106.327601,39.3656088 L101.80994,11.6488961 L99.5704819,11.6488961 L104.679204,42.0574287 C104.647068,42.1167451 104.519275,42.3439239 104.295825,42.738965 C104.072375,43.1340062 103.845546,43.5290473 103.615338,43.9240885 C103.38513,44.3191296 103.253958,44.5463084 103.221822,44.6056248 C102.100065,46.5829381 101.016677,47.9808629 99.9716563,48.799399 C98.9266357,49.617935 97.7756715,50.0272031 96.5187636,50.0272031 C96.3019207,50.0272031 96.0264371,50.0080833 95.6923129,49.9698438 C95.3581886,49.9316043 95.0555246,49.8798154 94.7843208,49.814477 L94.4288726,51.7579169 C94.7195983,51.8319871 95.0548488,51.8908518 95.4346242,51.9345111 C95.8143996,51.9781704 96.1496501,52 96.4403758,52 Z" id="Path"></path>
                <path d="M121.885148,41.7105633 L124.120552,41.7105633 L127.968762,23.5936213 C128.422571,21.5103213 129.108088,19.7007197 130.025316,18.1648166 C130.942543,16.6289136 132.044853,15.4403275 133.332245,14.5990585 C134.619637,13.7577895 136.032945,13.337155 137.572169,13.337155 C138.361153,13.337155 139.10839,13.4184515 139.81388,13.5810447 C140.519371,13.7436378 141.049314,13.9548584 141.403711,14.2147063 L141.910078,12.0047944 C141.52775,11.7952299 140.975807,11.6112588 140.254249,11.452881 C139.53269,11.2945032 138.792887,11.2153143 138.034838,11.2153143 C136.248136,11.2153143 134.633753,11.6832213 133.191688,12.6190352 C131.749622,13.5548491 130.495342,14.9564623 129.428848,16.8238748 L129.313519,16.8238748 L130.419507,11.6488961 L128.257085,11.6488961 L121.885148,41.7105633 Z" id="Path"></path>
                <path d="M147.829515,40.2002536 C145.603722,40.2002536 143.794045,39.6402858 142.400484,38.5203502 C141.006923,37.4004146 140.310143,35.9359471 140.310143,34.1269477 C140.310143,31.9524149 141.192981,30.2277231 142.958659,28.9528723 C144.724337,27.6780216 147.229894,26.9550842 150.475329,26.7840603 L160.407604,26.2253722 L159.304769,31.2431775 C158.933553,32.9612452 158.187443,34.4974493 157.066437,35.8517901 C155.945431,37.2061308 154.586484,38.2694599 152.989595,39.0417774 C151.392707,39.8140949 149.67268,40.2002536 147.829515,40.2002536 Z M147.39613,42.1685341 C148.902918,42.1685341 150.342505,41.9270531 151.714892,41.4440912 C153.08728,40.9611294 154.335178,40.2768079 155.458586,39.3911269 C156.581994,38.5054458 157.500798,37.4721513 158.214998,36.2912432 L158.322219,36.3124707 L157.170278,41.7105633 L159.348919,41.7105633 L163.55483,21.9243316 C163.640125,21.4663609 163.705449,21.0205847 163.750799,20.587003 C163.79615,20.1534212 163.818826,19.7374537 163.818826,19.3391005 C163.818826,17.6987163 163.411344,16.265563 162.596381,15.0396408 C161.781418,13.8137185 160.632932,12.8623227 159.150922,12.1854535 C157.668912,11.5085842 155.930339,11.1701496 153.935205,11.1701496 C151.789301,11.1701496 149.85581,11.5423072 148.134732,12.2866225 C146.413654,13.0309379 144.997793,14.0725126 143.887149,15.4113468 C142.776505,16.7501809 142.03978,18.3253021 141.676974,20.1367103 L143.997523,20.1367103 C144.305668,18.7152246 144.898232,17.4871194 145.775214,16.4523946 C146.652197,15.4176698 147.772451,14.6168233 149.135979,14.049855 C150.499506,13.4828866 152.04774,13.1994024 153.780681,13.1994024 C156.23413,13.1994024 158.146672,13.766145 159.518308,14.89963 C160.889945,16.033115 161.575763,17.5942351 161.575763,19.5829903 C161.575763,19.9166073 161.553613,20.2697958 161.509314,20.6425556 C161.465014,21.0153155 161.400216,21.4102061 161.314921,21.8272274 L160.786929,24.3302587 L150.470824,24.9174006 C146.5211,25.1381057 143.465026,26.0569829 141.302604,27.674032 C139.140182,29.2910811 138.058971,31.504531 138.058971,34.3143815 C138.058971,35.8551022 138.461121,37.2170456 139.265422,38.4002119 C140.069723,39.5833782 141.173985,40.5072235 142.578208,41.1717477 C143.982431,41.8362719 145.588405,42.1685341 147.39613,42.1685341 Z" id="Shape"></path>
                <path d="M164.865907,41.7105633 L167.10942,41.7105633 L171.117109,22.944152 C171.543587,20.9683441 172.229705,19.2535886 173.175465,17.7998854 C174.121224,16.3461821 175.254769,15.2173641 176.576099,14.4134313 C177.897429,13.6094985 179.321549,13.2075321 180.84846,13.2075321 C182.963429,13.2075321 184.653872,13.8486459 185.91979,15.1308736 C187.185708,16.4131013 187.818667,18.055819 187.818667,20.0590269 C187.818667,20.5248261 187.781576,21.0783956 187.707393,21.7197353 C187.63321,22.3610749 187.538453,22.9515289 187.423124,23.4910973 L183.567706,41.7105633 L185.811219,41.7105633 L189.777011,23.0850661 C190.214601,21.0354891 190.904924,19.2734611 191.847981,17.7989821 C192.791037,16.324503 193.926609,15.1906416 195.254697,14.3973978 C196.582784,13.604154 198.024249,13.2075321 199.579091,13.2075321 C201.674838,13.2075321 203.355671,13.8486459 204.621589,15.1308736 C205.887507,16.4131013 206.520466,18.055819 206.520466,20.0590269 C206.520466,20.5248261 206.484726,21.0783956 206.413246,21.7197353 C206.341766,22.3610749 206.248361,22.9515289 206.133032,23.4910973 L202.277613,41.7105633 L204.520676,41.7105633 L208.486919,23.0606771 C208.593838,22.5689834 208.676131,22.004198 208.733795,21.366321 C208.79146,20.728444 208.820292,20.1120202 208.820292,19.5170497 C208.820292,17.8899138 208.450278,16.4492331 207.710249,15.1950076 C206.97022,13.940782 205.955533,12.956416 204.666189,12.2419094 C203.376845,11.5274029 201.901442,11.1701496 200.239981,11.1701496 C198.639188,11.1701496 197.162959,11.4905936 195.811295,12.1314816 C194.459631,12.7723696 193.289971,13.6341133 192.302315,14.7167127 C191.314658,15.7993121 190.554882,17.0128141 190.022986,18.3572185 L189.915766,18.3572185 C189.727155,16.3007163 188.868268,14.5887459 187.339105,13.2213073 C185.809942,11.8538688 183.876301,11.1701496 181.538182,11.1701496 C179.49139,11.1701496 177.675706,11.7187509 176.091131,12.8159536 C174.506556,13.9131563 173.245293,15.4454462 172.307342,17.4128233 L172.192013,17.4128233 L173.408376,11.6488961 L171.237844,11.6488961 L164.865907,41.7105633 Z" id="Path"></path>
                <path d="M210.247909,41.7105633 L212.496828,41.7105633 L218.868766,11.6488961 L216.619847,11.6488961 L210.247909,41.7105633 Z M219.67607,4.24910105 C220.156608,4.24910105 220.574677,4.08048593 220.930275,3.74325568 C221.285873,3.40602544 221.463672,2.98689643 221.463672,2.48586864 C221.463672,1.98484085 221.285873,1.56571184 220.930275,1.2284816 C220.574677,0.891251353 220.156608,0.722636233 219.67607,0.722636233 C219.195532,0.722636233 218.782269,0.891251353 218.436281,1.2284816 C218.090294,1.56571184 217.9173,1.98484085 217.9173,2.48586864 C217.9173,2.98689643 218.090294,3.40602544 218.436281,3.74325568 C218.782269,4.08048593 219.195532,4.24910105 219.67607,4.24910105 Z" id="Shape"></path>
                <path d="M230.877892,42.1685341 C233.281484,42.1685341 235.559236,41.5121395 237.711146,40.1993503 C239.863056,38.8865612 241.53608,37.1388353 242.730218,34.9561728 L242.845547,34.9561728 L241.421502,41.7105633 L243.685288,41.7105633 L252.536803,0 L250.280676,0 L245.968896,20.2279431 L245.845457,20.2279431 C245.648437,18.45357 245.076146,16.8871055 244.128584,15.5285493 C243.181023,14.1699932 241.9549,13.1074169 240.450214,12.3408203 C238.945529,11.5742237 237.264095,11.1909254 235.405914,11.1909254 C233.305361,11.1909254 231.321263,11.678479 229.453621,12.6535863 C227.585979,13.6286935 225.935255,14.9768617 224.501449,16.6980909 C223.067643,18.4193201 221.946863,20.4109357 221.139108,22.6729376 C220.331353,24.9349396 219.927476,27.3526847 219.927476,29.926173 C219.927476,32.3334549 220.386089,34.4568763 221.303317,36.2964372 C222.220544,38.1359981 223.501479,39.5745711 225.146121,40.6121563 C226.790764,41.6497415 228.701354,42.1685341 230.877892,42.1685341 Z M231.346417,40.160057 C228.560796,40.160057 226.333802,39.2096398 224.665433,37.3088054 C222.997064,35.407971 222.16288,32.8909387 222.16288,29.7577084 C222.16288,27.5091053 222.514424,25.3923834 223.217511,23.4075425 C223.920599,21.4227017 224.887757,19.6616522 226.118986,18.1243942 C227.350215,16.5871361 228.759469,15.3833446 230.346747,14.5130196 C231.934025,13.6426946 233.611854,13.2075321 235.380235,13.2075321 C238.228926,13.2075321 240.505776,14.1537339 242.210786,16.0461375 C243.915796,17.9385412 244.768301,20.4509065 244.768301,23.5832334 C244.768301,25.7987157 244.439583,27.9042217 243.782146,29.8997516 C243.12471,31.8952814 242.193592,33.6637078 240.988792,35.2050307 C239.783993,36.7463535 238.362576,37.957522 236.724541,38.838536 C235.086506,39.71955 233.293798,40.160057 231.346417,40.160057 Z" id="Shape"></path>
                <path d="M253.848014,25.0958014 C254.265481,22.7716226 255.057018,20.7161742 256.222624,18.9294561 C257.388229,17.142738 258.834649,15.7396946 260.561884,14.7203259 C262.289119,13.7009571 264.194153,13.1912728 266.276986,13.1912728 C268.203644,13.1912728 269.843781,13.601143 271.197397,14.4208835 C272.551014,15.240624 273.582294,16.3799052 274.291238,17.838727 C275.000182,19.2975489 275.354654,20.9818936 275.354654,22.8917609 C275.354654,23.4015205 275.340764,23.8105628 275.312982,24.1188876 C275.285201,24.4272123 275.234069,24.7528503 275.159586,25.0958014 L253.848014,25.0958014 Z M262.809001,42.2055692 C264.920366,42.2055692 266.844847,41.8343901 268.582443,41.0920319 C270.32004,40.3496737 271.809333,39.2955281 273.050323,37.9295951 C274.291313,36.5636621 275.205837,34.9626464 275.793896,33.1265482 L273.52065,33.1265482 C272.695626,35.3474502 271.363558,37.0776371 269.524448,38.3171088 C267.685338,39.5565804 265.479893,40.1763163 262.908112,40.1763163 C260.943912,40.1763163 259.241005,39.7490576 257.79939,38.8945403 C256.357775,38.0400229 255.245629,36.8252413 254.462952,35.2501954 C253.680276,33.6751495 253.288937,31.80307 253.288937,29.633957 C253.288937,29.3078674 253.309661,28.9263004 253.351107,28.489256 C253.392553,28.0522116 253.450518,27.5596899 253.525002,27.0116907 L277.167485,27.0116907 C277.305039,26.4534542 277.410382,25.8143728 277.483514,25.0944465 C277.556646,24.3745201 277.593212,23.6854564 277.593212,23.0272552 C277.593212,20.5868524 277.137676,18.4813464 276.226606,16.7107371 C275.315535,14.9401277 274.018833,13.5740442 272.336498,12.6124863 C270.654164,11.6509285 268.660456,11.1701496 266.355374,11.1701496 C264.15571,11.1701496 262.119954,11.639562 260.248108,12.5783869 C258.376261,13.5172118 256.753018,14.8312807 255.378378,16.5205934 C254.003738,18.2099061 252.935216,20.1836063 252.172812,22.441694 C251.410408,24.6997817 251.029206,27.1523037 251.029206,29.79926 C251.029206,32.2733858 251.497431,34.4418214 252.43388,36.3045669 C253.370329,38.1673123 254.721842,39.616499 256.488421,40.6521271 C258.255,41.6877551 260.36186,42.2055692 262.809001,42.2055692 Z" id="Shape"></path>
                <path d="M303.28468,42.1685341 C305.688273,42.1685341 307.966024,41.5121395 310.117934,40.1993503 C312.269845,38.8865612 313.942869,37.1388353 315.137006,34.9561728 L315.252336,34.9561728 L313.82829,41.7105633 L316.092076,41.7105633 L324.943591,0 L322.687464,0 L318.375684,20.2279431 L318.252246,20.2279431 C318.055225,18.45357 317.482934,16.8871055 316.535373,15.5285493 C315.587811,14.1699932 314.361688,13.1074169 312.857003,12.3408203 C311.352317,11.5742237 309.670884,11.1909254 307.812702,11.1909254 C305.712149,11.1909254 303.728052,11.678479 301.86041,12.6535863 C299.992768,13.6286935 298.342044,14.9768617 296.908238,16.6980909 C295.474432,18.4193201 294.353651,20.4109357 293.545896,22.6729376 C292.738142,24.9349396 292.334264,27.3526847 292.334264,29.926173 C292.334264,32.3334549 292.792878,34.4568763 293.710105,36.2964372 C294.627333,38.1359981 295.908268,39.5745711 297.55291,40.6121563 C299.197552,41.6497415 301.108142,42.1685341 303.28468,42.1685341 Z M303.753205,40.160057 C300.967585,40.160057 298.74059,39.2096398 297.072221,37.3088054 C295.403853,35.407971 294.569668,32.8909387 294.569668,29.7577084 C294.569668,27.5091053 294.921212,25.3923834 295.624299,23.4075425 C296.327387,21.4227017 297.294545,19.6616522 298.525775,18.1243942 C299.757004,16.5871361 301.166257,15.3833446 302.753535,14.5130196 C304.340813,13.6426946 306.018643,13.2075321 307.787023,13.2075321 C310.635714,13.2075321 312.912565,14.1537339 314.617575,16.0461375 C316.322584,17.9385412 317.175089,20.4509065 317.175089,23.5832334 C317.175089,25.7987157 316.846371,27.9042217 316.188935,29.8997516 C315.531498,31.8952814 314.60038,33.6637078 313.395581,35.2050307 C312.190781,36.7463535 310.769364,37.957522 309.131329,38.838536 C307.493294,39.71955 305.700586,40.160057 303.753205,40.160057 Z" id="Shape"></path>
                <path d="M326.254802,25.0958014 C326.67227,22.7716226 327.463806,20.7161742 328.629412,18.9294561 C329.795018,17.142738 331.241438,15.7396946 332.968673,14.7203259 C334.695907,13.7009571 336.600941,13.1912728 338.683774,13.1912728 C340.610432,13.1912728 342.25057,13.601143 343.604186,14.4208835 C344.957802,15.240624 345.989082,16.3799052 346.698026,17.838727 C347.40697,19.2975489 347.761443,20.9818936 347.761443,22.8917609 C347.761443,23.4015205 347.747552,23.8105628 347.719771,24.1188876 C347.69199,24.4272123 347.640857,24.7528503 347.566374,25.0958014 L326.254802,25.0958014 Z M335.21579,42.2055692 C337.327155,42.2055692 339.251635,41.8343901 340.989232,41.0920319 C342.726828,40.3496737 344.216121,39.2955281 345.457111,37.9295951 C346.698101,36.5636621 347.612626,34.9626464 348.200685,33.1265482 L345.927438,33.1265482 C345.102414,35.3474502 343.770347,37.0776371 341.931237,38.3171088 C340.092127,39.5565804 337.886681,40.1763163 335.314901,40.1763163 C333.3507,40.1763163 331.647793,39.7490576 330.206178,38.8945403 C328.764563,38.0400229 327.652418,36.8252413 326.869741,35.2501954 C326.087064,33.6751495 325.695726,31.80307 325.695726,29.633957 C325.695726,29.3078674 325.716449,28.9263004 325.757895,28.489256 C325.799342,28.0522116 325.857307,27.5596899 325.93179,27.0116907 L349.574273,27.0116907 C349.711827,26.4534542 349.81717,25.8143728 349.890302,25.0944465 C349.963434,24.3745201 350,23.6854564 350,23.0272552 C350,20.5868524 349.544465,18.4813464 348.633394,16.7107371 C347.722324,14.9401277 346.425621,13.5740442 344.743287,12.6124863 C343.060952,11.6509285 341.067244,11.1701496 338.762162,11.1701496 C336.562498,11.1701496 334.526743,11.639562 332.654896,12.5783869 C330.783049,13.5172118 329.159806,14.8312807 327.785166,16.5205934 C326.410527,18.2099061 325.342005,20.1836063 324.579601,22.441694 C323.817197,24.6997817 323.435995,27.1523037 323.435995,29.79926 C323.435995,32.2733858 323.904219,34.4418214 324.840668,36.3045669 C325.777117,38.1673123 327.128631,39.616499 328.89521,40.6521271 C330.661789,41.6877551 332.768648,42.2055692 335.21579,42.2055692 Z" id="Shape"></path>
            </g>
        </g>
    </g>
</svg>
