<?xml version="1.0" standalone="no"?>
<!DOCTYPE svg PUBLIC "-//W3C//DTD SVG 20010904//EN"
 "http://www.w3.org/TR/2001/REC-SVG-20010904/DTD/svg10.dtd">
<svg version="1.0" xmlns="http://www.w3.org/2000/svg"
 width="94.000000pt" height="94.000000pt" viewBox="0 0 94.000000 94.000000"
 preserveAspectRatio="xMidYMid meet">
<metadata>
Created by potrace 1.14, written by Peter Selinger 2001-2017
</metadata>
<g transform="translate(0.000000,94.000000) scale(0.100000,-0.100000)"
fill="#000000" stroke="none">
<path d="M418 884 c-22 -11 -78 -87 -78 -105 0 -2 59 -4 130 -4 72 0 130 2
130 4 0 2 -11 24 -25 48 -40 67 -99 89 -157 57z"/>
<path d="M338 698 c-45 -10 -50 -14 -87 -79 -22 -38 -39 -69 -37 -69 2 0 28
11 57 24 135 59 299 56 417 -9 l43 -24 -38 71 c-36 68 -41 72 -84 83 -57 15
-208 17 -271 3z"/>
<path d="M368 534 c-101 -26 -177 -80 -209 -149 -33 -70 -18 -143 41 -204 161
-166 502 -124 587 73 34 76 -8 175 -97 231 -86 54 -223 75 -322 49z m235 -117
c59 -35 109 -95 97 -116 -18 -34 -77 -85 -120 -105 -62 -28 -159 -28 -221 1
-25 12 -64 42 -88 68 l-42 46 20 28 c29 41 88 82 151 105 8 3 47 4 86 2 56 -2
82 -9 117 -29z"/>
<path d="M400 393 c-64 -57 -43 -159 38 -183 113 -34 191 108 101 184 -43 36
-98 35 -139 -1z m119 -61 c17 -32 -9 -67 -49 -67 -60 0 -77 74 -21 93 29 11
56 1 70 -26z"/>
<path d="M31 222 c-41 -84 -38 -126 10 -166 29 -25 36 -26 151 -26 l121 0 -59
30 c-33 16 -78 47 -100 70 -37 36 -51 60 -81 138 -8 21 -11 17 -42 -46z"/>
<path d="M863 263 c-30 -91 -83 -153 -173 -202 l-55 -31 119 0 119 0 33 36
c21 21 34 46 34 61 0 25 -55 153 -65 153 -3 0 -8 -8 -12 -17z"/>
</g>
</svg>
